<svg xmlns="http://www.w3.org/2000/svg" viewBox="0 0 24 24">
  <path d="M21.54 7.2c.01.17.01.35.01.52 0 5.33-4.06 11.48-11.48 11.48-2.28 0-4.4-.67-6.18-1.82.32.04.65.06.98.06 1.89 0 3.63-.64 5.01-1.72a4.05 4.05 0 0 1-3.78-2.81c.25.04.51.06.78.06.37 0 .73-.05 1.07-.14a4.04 4.04 0 0 1-3.24-3.97v-.05c.54.3 1.16.48 1.81.5a4.03 4.03 0 0 1-1.8-3.36c0-.74.2-1.43.55-2.03a11.46 11.46 0 0 0 8.32 4.22 4.56 4.56 0 0 1-.1-.93 4.03 4.03 0 0 1 6.98-2.76 7.87 7.87 0 0 0 2.56-.98 4.05 4.05 0 0 1-1.77 2.23 8.06 8.06 0 0 0 2.32-.64 8.61 8.61 0 0 1-2.02 2.09z" fill="currentColor"/>
</svg>